# Alias OBJ Model File
# Exported from SketchUp, (c) 2000-2012 Trimble Navigation Limited
# File units = millimeters

mtllib Pianale_Sam.mtl

g Mesh1 Model

usemtl FrontColor
v 675.569 0 -63.7973
vt -26.5972 2.51171
vn 0 -1 -0
v 675.569 0 -813.797
vt -26.5972 32.0393
v 875.569 0 -813.797
vt -34.4712 32.0393
v 875.569 0 -63.7973
vt -34.4712 2.51171
f 1/1/1 2/2/1 3/3/1 4/4/1 

vt -32.0393 0
vn -1 0 -0
vt -2.51171 0
v 675.569 1.5 -63.7973
vt -2.51171 0.0590551
v 675.569 1.5 -813.797
vt -32.0393 0.0590551
f 2/5/2 1/6/2 5/7/2 6/8/2 

vt 26.5972 0
vn 0 0 1
vt 34.4712 0
v 875.569 1.5 -63.7973
vt 34.4712 0.0590551
vt 26.5972 0.0590551
f 1/9/3 4/10/3 7/11/3 5/12/3 

vt 2.51171 0
vn 1 0 -0
vt 32.0393 0
v 875.569 1.5 -813.797
vt 32.0393 0.0590551
vt 2.51171 0.0590551
f 4/13/4 3/14/4 8/15/4 7/16/4 

vt -34.4712 0
vn 0 0 -1
vt -26.5972 0
vt -26.5972 0.0590551
vt -34.4712 0.0590551
f 3/17/5 2/18/5 6/19/5 8/20/5 

vt 26.5972 32.0393
vn 0 1 -0
vt 26.5972 2.51171
vt 34.4712 2.51171
vt 34.4712 32.0393
f 6/21/6 5/22/6 7/23/6 8/24/6 

